# xmcd
#
# Track frame offsets: 
#        150
#        26929
#        45123
#        61333
#        84819
#        100478
#        119860
#        142134
#        156053
#        173252
#        194496
#        219557
#        235915
#        255924
#        276266
#        299734
#
# Disc length: 4307 seconds
#
# Revision: 0
# Processed by: cddbd v1.5.2PL0 Copyright (c) Steve Scherf et al.
# Submitted via: ExactAudioCopy v1.0b2
#
DISCID=ea10d110
DTITLE=Various Artist - Rapstar Compilation BEST＆BEST DISC2
DYEAR=2011
DGENRE=Hip-Hop
TTITLE0=SUIKA with らっぷびと - Music Junkie RMX
TTITLE1=環ROY×Fragment - primal scream
TTITLE2=jinmenusagi - Thousand Ward pt.2
TTITLE3=MONI-FACE - Shades
TTITLE4=plugnet - OLDFINGER'83
TTITLE5=X-DOPE ENT. - X-DOPE!!
TTITLE6=HIROSHIMA FUSION UNITE - UNITE
TTITLE7=MACHEE DEF - It's A Tame
TTITLE8=アリレム - chaining
TTITLE9=シマダカズユキ - haha no hi
TTITLE10=村おこし - MURAOKOSHI
TTITLE11=空也MC feat. カクマクシャカ - 全ての出口に繋がる今日
TTITLE12=NIHA-C - Ground Zero (ist Remix)
TTITLE13=ill.bell - Home
TTITLE14=YAMANE×Paranel×EeMu - 陽と背中
TTITLE15=NOBY feat. Twoface,jinmenusagi,MC壁,ハシシックバグ,DC,ブルスコファー薺,Rilldy
TTITLE15=WALKIN DOWN THE STREETZ
EXTD=
EXTT0=
EXTT1=
EXTT2=
EXTT3=
EXTT4=
EXTT5=
EXTT6=
EXTT7=
EXTT8=
EXTT9=
EXTT10=
EXTT11=
EXTT12=
EXTT13=
EXTT14=
EXTT15=
PLAYORDER=
